<svg width="22" height="21" viewBox="0 0 22 21" fill="none" xmlns="http://www.w3.org/2000/svg">
<path d="M9.63235 17.744H11.4847V16.4681C12.3668 16.315 13.1254 15.9832 13.7605 15.4729C14.3956 14.9625 14.7132 14.2054 14.7132 13.2017C14.7132 12.4872 14.5015 11.8322 14.0781 11.2368C13.6547 10.6414 12.8079 10.1225 11.5377 9.6802C10.4792 9.33996 9.74702 9.04225 9.34126 8.78706C8.9355 8.53188 8.73263 8.18313 8.73263 7.74081C8.73263 7.2985 8.89581 6.94974 9.22218 6.69456C9.54855 6.43938 10.0205 6.31179 10.6379 6.31179C11.2025 6.31179 11.6435 6.44363 11.9611 6.70732C12.2786 6.97101 12.5079 7.29849 12.6491 7.68978L14.3427 7.0263C14.1486 6.43087 13.7914 5.912 13.2709 5.46968C12.7505 5.02737 12.1728 4.78069 11.5377 4.72965V3.45374H9.68528V4.72965C8.80319 4.91679 8.11517 5.29105 7.6212 5.85246C7.12723 6.41386 6.88025 7.04331 6.88025 7.74081C6.88025 8.54039 7.12282 9.18685 7.60797 9.6802C8.09311 10.1736 8.85612 10.5989 9.89698 10.9561C11.0084 11.3474 11.7802 11.6961 12.2124 12.0024C12.6447 12.3086 12.8608 12.7084 12.8608 13.2017C12.8608 13.7631 12.6535 14.1757 12.2389 14.4394C11.8243 14.7031 11.326 14.8349 10.7438 14.8349C10.1616 14.8349 9.64558 14.6605 9.19572 14.3118C8.74586 13.963 8.41508 13.4399 8.20338 12.7424L6.45685 13.4059C6.70383 14.2225 7.08754 14.8817 7.60797 15.3835C8.1284 15.8854 8.80319 16.2299 9.63235 16.417V17.744ZM10.585 20.8062C9.12074 20.8062 7.74469 20.5382 6.45685 20.0024C5.16901 19.4665 4.04876 18.7392 3.09611 17.8205C2.14346 16.9019 1.38928 15.8216 0.833569 14.5797C0.277856 13.3378 0 12.0109 0 10.5989C0 9.18685 0.277856 7.8599 0.833569 6.61801C1.38928 5.37612 2.14346 4.29584 3.09611 3.37718C4.04876 2.45852 5.16901 1.73125 6.45685 1.19537C7.74469 0.659483 9.12074 0.391541 10.585 0.391541C12.0493 0.391541 13.4253 0.659483 14.7132 1.19537C16.001 1.73125 17.1212 2.45852 18.0739 3.37718C19.0265 4.29584 19.7807 5.37612 20.3364 6.61801C20.8921 7.8599 21.17 9.18685 21.17 10.5989C21.17 12.0109 20.8921 13.3378 20.3364 14.5797C19.7807 15.8216 19.0265 16.9019 18.0739 17.8205C17.1212 18.7392 16.001 19.4665 14.7132 20.0024C13.4253 20.5382 12.0493 20.8062 10.585 20.8062Z" fill="white"/>
</svg>
