<svg width="30" height="21" viewBox="0 0 30 21" fill="none" xmlns="http://www.w3.org/2000/svg">
<path d="M11.5858 20.5411L11.5777 20.5377L11.552 20.5242C11.4018 20.4445 11.2529 20.3628 11.1052 20.2789C9.32928 19.2613 7.66965 18.0659 6.15383 16.7126C3.46933 14.2971 0.625 10.7127 0.625 6.29808C0.625 3.00396 3.49967 0.39162 6.96933 0.39162C7.93388 0.387065 8.88708 0.592261 9.75804 0.991947C10.629 1.39163 11.3953 1.97553 12 2.7002C12.6048 1.97538 13.3713 1.3914 14.2425 0.991702C15.1137 0.592009 16.0671 0.386895 17.0318 0.39162C20.5003 0.39162 23.375 3.00396 23.375 6.29808C23.375 10.7139 20.5307 14.2982 17.8462 16.7114C16.3304 18.0648 14.6707 19.2602 12.8948 20.2778C12.7471 20.362 12.5982 20.4442 12.448 20.5242L12.4223 20.5377L12.4142 20.5422L12.4107 20.5433C12.2842 20.6079 12.1432 20.6417 12 20.6417C11.8568 20.6417 11.7158 20.6079 11.5893 20.5433L11.5858 20.5411Z" fill="white"/>
<path d="M21.8933 18.6816L25.0833 12.6707H22.8833V8.78123L19.5833 14.7922H21.8933V18.6816ZM22.3333 20.8031C21.3189 20.8031 20.3656 20.6175 19.4733 20.2462C18.5811 19.8749 17.805 19.3711 17.145 18.7346C16.485 18.0982 15.9625 17.3497 15.5775 16.4894C15.1925 15.629 15 14.7097 15 13.7314C15 12.7532 15.1925 11.8338 15.5775 10.9735C15.9625 10.1131 16.485 9.36465 17.145 8.72819C17.805 8.09174 18.5811 7.58789 19.4733 7.21662C20.3656 6.84536 21.3189 6.65973 22.3333 6.65973C23.3478 6.65973 24.3011 6.84536 25.1933 7.21662C26.0856 7.58789 26.8617 8.09174 27.5217 8.72819C28.1817 9.36465 28.7042 10.1131 29.0892 10.9735C29.4742 11.8338 29.6667 12.7532 29.6667 13.7314C29.6667 14.7097 29.4742 15.629 29.0892 16.4894C28.7042 17.3497 28.1817 18.0982 27.5217 18.7346C26.8617 19.3711 26.0856 19.8749 25.1933 20.2462C24.3011 20.6175 23.3478 20.8031 22.3333 20.8031Z" fill="#894189"/>
<path d="M22.2667 18.2315L25.1667 12.7671H23.1667V9.23122L20.1667 14.6957H22.2667V18.2315ZM22.6667 20.1602C21.7444 20.1602 20.8778 19.9914 20.0667 19.6539C19.2556 19.3164 18.55 18.8583 17.95 18.2798C17.35 17.7012 16.875 17.0208 16.525 16.2386C16.175 15.4564 16 14.6207 16 13.7314C16 12.8421 16.175 12.0063 16.525 11.2241C16.875 10.442 17.35 9.7616 17.95 9.183C18.55 8.60441 19.2556 8.14636 20.0667 7.80885C20.8778 7.47134 21.7444 7.30258 22.6667 7.30258C23.5889 7.30258 24.4556 7.47134 25.2667 7.80885C26.0778 8.14636 26.7833 8.60441 27.3833 9.183C27.9833 9.7616 28.4583 10.442 28.8083 11.2241C29.1583 12.0063 29.3333 12.8421 29.3333 13.7314C29.3333 14.6207 29.1583 15.4564 28.8083 16.2386C28.4583 17.0208 27.9833 17.7012 27.3833 18.2798C26.7833 18.8583 26.0778 19.3164 25.2667 19.6539C24.4556 19.9914 23.5889 20.1602 22.6667 20.1602Z" fill="white"/>
</svg>
